<svg xmlns="http://www.w3.org/2000/svg" width="23.5" height="23.5" viewBox="0 0 23.5 23.5">
  <path id="_1497554805-social-media05_84877" data-name="1497554805-social-media05_84877" d="M174.138,154.8H158.762a4.066,4.066,0,0,0-4.062,4.062v15.377a4.066,4.066,0,0,0,4.062,4.062h15.377a4.066,4.066,0,0,0,4.062-4.062V158.862A4.066,4.066,0,0,0,174.138,154.8Zm-9.539,3.679.012.023h-.058Zm9.377,12.266-.174.325a3.116,3.116,0,0,1-3.551,1.578A13.582,13.582,0,0,1,160.8,163.2a3.1,3.1,0,0,1,1.578-3.551c.139-.07.267-.139.395-.209a.849.849,0,0,1,1.114.29c.429.65,1.033,1.59,1.764,2.7a.862.862,0,0,1-.116,1.079l-.65.65a1.114,1.114,0,0,0-.22,1.253,6.833,6.833,0,0,0,3.377,3.377,1.121,1.121,0,0,0,1.253-.22l.592-.592a.861.861,0,0,1,1.079-.116l2.727,1.776A.84.84,0,0,1,173.976,170.745Z" transform="translate(-154.7 -154.8)" fill="#5e4f49"/>
</svg>
