<svg xmlns="http://www.w3.org/2000/svg" width="53.386" height="53.853" viewBox="0 0 53.386 53.853">
  <path id="customer-service-icon" d="M18.48,31.868a20.684,20.684,0,0,1-1.709-3.4c-3.676-2.068-4.263-11.264-2-10.567,0-.346-.061-1.314-.061-1.98,0-14.927,23.983-14.935,23.983,0,0,.683-.07,1.634-.061,1.98,2.261-.71,1.674,8.486-2,10.567-.933,2.585-2.6,4.32-2.462,5.455,0,3.895-4.28,5.306-7.448,5.341a5.9,5.9,0,0,1-.876-.044,7.8,7.8,0,0,0,1.98-.832h0a4.234,4.234,0,0,0,2.283-3.54,4.23,4.23,0,0,0-2.278-3.544h0a8.184,8.184,0,0,0-4.118-1.126,8.561,8.561,0,0,0-3.29.591,5.6,5.6,0,0,0-1.752,1.13H18.51ZM44,13.844h-.162c-1.5-6.366-5.367-10.782-9.972-12.609A19.3,19.3,0,0,0,25.411.061a20.482,20.482,0,0,0-8.079,2.366A15,15,0,0,0,9.7,13.844H9.4a2.9,2.9,0,0,0-2.909,2.629v9.494A2.892,2.892,0,0,0,9.4,28.6h.854c.933,3.79,4.714,7.26,8.583,7.26H19.6c.662.973,1.945,1.66,4.083,1.66s4.416-1.2,4.416-2.686-2.248-2.681-4.416-2.681-3.483.705-4.123,1.722h-.719c-3.3,0-6.572-3.5-6.8-6.668V14.015a12.749,12.749,0,0,1,6.423-9.551,18.164,18.164,0,0,1,7.128-2.072A17,17,0,0,1,33,3.408c3.816,1.507,7.036,5.257,8.425,10.436h-.057V28.6H44a2.892,2.892,0,0,0,2.909-2.629v-9.49A2.888,2.888,0,0,0,44,13.848ZM28.3,45.752h.815a1.314,1.314,0,0,0,1.314-1.314V42.247a1.314,1.314,0,0,0-1.314-1.314H24.294a1.336,1.336,0,0,0-1.314,1.314v2.191a1.341,1.341,0,0,0,1.314,1.314H25.1l-1.595,8.074h6.313L28.3,45.747ZM0,53.831c.627-8.123-.968-7.794,5.836-10.34a56.372,56.372,0,0,0,9.98-4.819L21.63,53.844ZM37.853,37.966a41.731,41.731,0,0,0,9.231,4.381c6.353,2.112,6.353,2.41,6.291,11.466H31.829Z" transform="translate(0 0.009)" fill="#f4ecdd" fill-rule="evenodd"/>
</svg>
