<svg xmlns="http://www.w3.org/2000/svg" width="21.876" height="21.876" viewBox="0 0 21.876 21.876">
  <path id="_Icon-Color" data-name="dashboard" d="M4.215,15.153h7.292a1.219,1.219,0,0,0,1.215-1.215V4.215A1.219,1.219,0,0,0,11.507,3H4.215A1.219,1.219,0,0,0,3,4.215v9.723A1.219,1.219,0,0,0,4.215,15.153Zm0,9.723h7.292a1.219,1.219,0,0,0,1.215-1.215V18.8a1.219,1.219,0,0,0-1.215-1.215H4.215A1.219,1.219,0,0,0,3,18.8v4.861A1.219,1.219,0,0,0,4.215,24.876Zm12.153,0h7.292a1.219,1.219,0,0,0,1.215-1.215V13.938a1.219,1.219,0,0,0-1.215-1.215H16.369a1.219,1.219,0,0,0-1.215,1.215v9.723A1.219,1.219,0,0,0,16.369,24.876ZM15.153,4.215V9.077a1.219,1.219,0,0,0,1.215,1.215h7.292a1.219,1.219,0,0,0,1.215-1.215V4.215A1.219,1.219,0,0,0,23.661,3H16.369A1.219,1.219,0,0,0,15.153,4.215Z" transform="translate(-3 -3)" fill="#5e4f49" fill-rule="evenodd"/>
</svg>
