<svg xmlns="http://www.w3.org/2000/svg" width="33.977" height="61" viewBox="0 0 33.977 61">
  <g id="Group_19" data-name="Group 19" transform="translate(-493.386 -361.087)">
    <path id="Path_13" data-name="Path 13" d="M522.858,398.12h2.556a1.889,1.889,0,0,1,1.731,2.642,15.83,15.83,0,0,1-11.287,9.21,1.88,1.88,0,0,0-1.472,1.838V420.2a1.886,1.886,0,0,1-1.886,1.886h-3.561a1.886,1.886,0,0,1-1.886-1.886v-8.681a1.875,1.875,0,0,0-1.348-1.805,16.721,16.721,0,0,1-3.752-1.595,16.26,16.26,0,0,1-6.3-6.6,21.022,21.022,0,0,1-2.266-10,20.687,20.687,0,0,1,2.266-9.9,16.3,16.3,0,0,1,6.3-6.567,16.721,16.721,0,0,1,3.752-1.595,1.876,1.876,0,0,0,1.348-1.806v-8.68a1.886,1.886,0,0,1,1.886-1.886H512.5a1.886,1.886,0,0,1,1.886,1.886v8.359a1.879,1.879,0,0,0,1.491,1.842,15.988,15.988,0,0,1,6.409,2.814,14.855,14.855,0,0,1,4.935,6.457,1.891,1.891,0,0,1-1.744,2.61h-2.615a1.889,1.889,0,0,1-1.746-1.18,9.234,9.234,0,0,0-3.23-4.087,9.923,9.923,0,0,0-3.5-1.573,13.494,13.494,0,0,0-3.2-.36,12.148,12.148,0,0,0-4.134.674,10.307,10.307,0,0,0-4.266,2.893q-3.2,3.565-3.2,10.1,0,6.6,3.2,10.2a10.32,10.32,0,0,0,4.266,2.923,12.16,12.16,0,0,0,4.134.676,14.031,14.031,0,0,0,3.2-.346,9.983,9.983,0,0,0,3.467-1.52,9.161,9.161,0,0,0,3.261-4.158A1.884,1.884,0,0,1,522.858,398.12Z" transform="translate(0 0)" fill="#f4ecdd"/>
  </g>
</svg>
