<svg xmlns="http://www.w3.org/2000/svg" width="40.75" height="41.915" viewBox="0 0 40.75 41.915">
  <g id="Growth" transform="translate(-26.78 -27.473)">
    <path id="Path_15" data-name="Path 15" d="M371.313,27.722a.8.8,0,0,0-1.157,0l-6.679,8.5a.408.408,0,0,0-.007.515.732.732,0,0,0,.586.259h3v2.843a.708.708,0,0,0,1.348,0V36.49a.459.459,0,0,0-.2-.362.794.794,0,0,0-.477-.15h-2.489l5.491-6.988,5.491,6.993h-2.487a.611.611,0,0,0-.675.513V68.359H368.4V45.8a.708.708,0,0,0-1.348,0V68.877a.459.459,0,0,0,.2.362.8.8,0,0,0,.477.15h6.007a.61.61,0,0,0,.673-.512V37h3a.732.732,0,0,0,.586-.259.408.408,0,0,0-.007-.515Z" transform="translate(-310.556)" fill="#5e4f49"/>
    <path id="Path_16" data-name="Path 16" d="M394.5,189.427a.673.673,0,0,0,.673-.673v-.241a.675.675,0,0,0-1.348,0v.241a.673.673,0,0,0,.675.673Z" transform="translate(-337.33 -145.821)" fill="#5e4f49"/>
    <path id="Path_17" data-name="Path 17" d="M155.812,343.75H149.8a.673.673,0,0,0-.675.673v15.643a.675.675,0,0,0,.675.675h6.007a.673.673,0,0,0,.673-.675V344.423A.673.673,0,0,0,155.812,343.75Zm-.675,15.643h-4.659V345.1h4.659Z" transform="translate(-112.071 -291.359)" fill="#5e4f49"/>
    <path id="Path_18" data-name="Path 18" d="M33.462,400.88H27.455a.673.673,0,0,0-.675.673V410.3a.675.675,0,0,0,.675.675h6.007a.673.673,0,0,0,.673-.675v-8.748A.673.673,0,0,0,33.462,400.88Zm-.673,8.748H28.134v-7.406h4.654Z" transform="translate(0 -341.594)" fill="#5e4f49"/>
    <path id="Path_19" data-name="Path 19" d="M278.162,230.88h-6.007a.673.673,0,0,0-.675.673v29.265a.675.675,0,0,0,.675.675h6.007a.673.673,0,0,0,.673-.675V231.553a.674.674,0,0,0-.673-.673Zm-.675,29.265h-4.659V232.222h4.659Z" transform="translate(-224.142 -192.111)" fill="#5e4f49"/>
  </g>
</svg>
