<svg xmlns="http://www.w3.org/2000/svg" xmlns:xlink="http://www.w3.org/1999/xlink" width="29" height="29" viewBox="0 0 29 29">
  <defs>
    <clipPath id="clip-path">
      <rect id="Rectangle_19" data-name="Rectangle 19" width="29" height="29" fill="#5e4f49"/>
    </clipPath>
  </defs>
  <g id="right_align_align_text_right_icon_251467" clip-path="url(#clip-path)">
    <path id="Path_2" data-name="Path 2" d="M5.087,1.209H23.7A2.092,2.092,0,0,1,25.791,3.3v.829a2.09,2.09,0,0,1-2.09,2.09H5.087A2.092,2.092,0,0,1,3,4.13V3.3A2.092,2.092,0,0,1,5.087,1.209Z" transform="translate(3.209 1.295)" fill="#5e4f49"/>
    <path id="Path_3" data-name="Path 3" d="M2.092,5.79H26.908A2.1,2.1,0,0,1,29,7.861v.849A2.094,2.094,0,0,1,26.908,10.8H2.092A2.094,2.094,0,0,1,0,8.711V7.866A2.1,2.1,0,0,1,2.092,5.79Z" transform="translate(0 6.204)" fill="#5e4f49"/>
    <path id="Path_4" data-name="Path 4" d="M8.591,10.372H19.953a2.092,2.092,0,0,1,2.092,2.092v.829a2.09,2.09,0,0,1-2.09,2.09H8.581a2.09,2.09,0,0,1-2.09-2.09v-.829a2.092,2.092,0,0,1,2.1-2.092Z" transform="translate(6.955 11.113)" fill="#5e4f49"/>
  </g>
</svg>
