<svg id="icon" xmlns="http://www.w3.org/2000/svg" width="23.999" height="24" viewBox="0 0 23.999 24">
  <path id="Path_37" data-name="Path 37" d="M1.226,24H17.774A1.227,1.227,0,0,0,19,22.774V17.5a.5.5,0,0,0-1,0v5.274a.227.227,0,0,1-.226.226H1.226A.227.227,0,0,1,1,22.774V2.226A.227.227,0,0,1,1.226,2H3.092A1.5,1.5,0,0,0,4.5,3h10a1.5,1.5,0,0,0,1.408-1h1.866A.227.227,0,0,1,18,2.226V6.065a.5.5,0,0,0,1,0V2.226A1.227,1.227,0,0,0,17.774,1H15.908A1.5,1.5,0,0,0,14.5,0H4.5A1.5,1.5,0,0,0,3.092,1H1.226A1.227,1.227,0,0,0,0,2.226V22.775A1.227,1.227,0,0,0,1.226,24ZM4.5,1h10a.5.5,0,0,1,0,1H4.5a.5.5,0,0,1,0-1Z" fill="#f4ecdd"/>
  <path id="Path_38" data-name="Path 38" d="M15,7.5a.5.5,0,0,0-.5-.5H4.5a.5.5,0,0,0,0,1h10A.5.5,0,0,0,15,7.5Z" fill="#f4ecdd"/>
  <path id="Path_39" data-name="Path 39" d="M12.286,12.5a.5.5,0,0,0-.5-.5H4.5a.5.5,0,0,0,0,1h7.286A.5.5,0,0,0,12.286,12.5Z" fill="#f4ecdd"/>
  <path id="Path_40" data-name="Path 40" d="M4.5,17a.5.5,0,0,0,0,1h5a.5.5,0,0,0,0-1Z" fill="#f4ecdd"/>
  <path id="Path_41" data-name="Path 41" d="M13.5,17.5a.507.507,0,0,0,.133-.018l2.318-.639a.5.5,0,0,0,.221-.129l7.334-7.335a1.691,1.691,0,0,0,0-2.386,1.728,1.728,0,0,0-2.386,0l-7.334,7.335a.5.5,0,0,0-.128.221l-.639,2.317a.5.5,0,0,0,.128.486A.494.494,0,0,0,13.5,17.5Zm1.086-2.558L21.827,7.7a.7.7,0,0,1,.972,0,.688.688,0,0,1,0,.972l-7.241,7.241-1.341.37Z" fill="#f4ecdd"/>
</svg>
