<svg xmlns="http://www.w3.org/2000/svg" width="29.546" height="29.546" viewBox="0 0 29.546 29.546">
  <path id="Path_40" data-name="Path 40" d="M14.773,2.626a45.3,45.3,0,0,1,5.909.164,7.613,7.613,0,0,1,2.79.492,5.765,5.765,0,0,1,2.79,2.79,7.613,7.613,0,0,1,.492,2.79c0,1.477.164,1.97.164,5.909a45.3,45.3,0,0,1-.164,5.909,7.613,7.613,0,0,1-.492,2.79,5.765,5.765,0,0,1-2.79,2.79,7.613,7.613,0,0,1-2.79.492c-1.477,0-1.97.164-5.909.164a45.3,45.3,0,0,1-5.909-.164,7.613,7.613,0,0,1-2.79-.492,5.765,5.765,0,0,1-2.79-2.79,7.613,7.613,0,0,1-.492-2.79c0-1.477-.164-1.97-.164-5.909A45.3,45.3,0,0,1,2.79,8.864a7.613,7.613,0,0,1,.492-2.79A5.9,5.9,0,0,1,4.432,4.432,2.775,2.775,0,0,1,6.073,3.283a7.613,7.613,0,0,1,2.79-.492,45.3,45.3,0,0,1,5.909-.164m0-2.626A48.5,48.5,0,0,0,8.7.164,10.134,10.134,0,0,0,5.089.821,6.426,6.426,0,0,0,2.462,2.462,6.426,6.426,0,0,0,.821,5.089,7.479,7.479,0,0,0,.164,8.7,48.5,48.5,0,0,0,0,14.773a48.5,48.5,0,0,0,.164,6.073,10.134,10.134,0,0,0,.657,3.611,6.426,6.426,0,0,0,1.641,2.626,6.426,6.426,0,0,0,2.626,1.641,10.134,10.134,0,0,0,3.611.657,48.5,48.5,0,0,0,6.073.164,48.5,48.5,0,0,0,6.073-.164,10.134,10.134,0,0,0,3.611-.657,6.887,6.887,0,0,0,4.268-4.268,10.134,10.134,0,0,0,.657-3.611c0-1.641.164-2.134.164-6.073A48.5,48.5,0,0,0,29.382,8.7a10.134,10.134,0,0,0-.657-3.611,6.426,6.426,0,0,0-1.641-2.626A6.426,6.426,0,0,0,24.458.821,10.134,10.134,0,0,0,20.846.164,48.5,48.5,0,0,0,14.773,0m0,7.222a7.429,7.429,0,0,0-7.551,7.551,7.551,7.551,0,1,0,7.551-7.551m0,12.475a4.836,4.836,0,0,1-4.924-4.924,4.836,4.836,0,0,1,4.924-4.924A4.836,4.836,0,0,1,19.7,14.773,4.836,4.836,0,0,1,14.773,19.7M22.652,5.089a1.806,1.806,0,1,0,1.806,1.806,1.822,1.822,0,0,0-1.806-1.806" fill="#f4ecdd" fill-rule="evenodd"/>
</svg>
