<svg id="Group_7" data-name="Group 7" xmlns="http://www.w3.org/2000/svg" width="25.25" height="45.333" viewBox="0 0 25.25 45.333">
  <path id="Path_1" data-name="Path 1" d="M196.4,233.706h1.9a1.4,1.4,0,0,1,1.286,1.963,11.767,11.767,0,0,1-8.388,6.845,1.4,1.4,0,0,0-1.094,1.366v6.236a1.4,1.4,0,0,1-1.4,1.4h-2.647a1.4,1.4,0,0,1-1.4-1.4v-6.451a1.394,1.394,0,0,0-1-1.342,12.413,12.413,0,0,1-2.788-1.185,12.081,12.081,0,0,1-4.682-4.9A15.623,15.623,0,0,1,174.5,228.8a15.374,15.374,0,0,1,1.685-7.357,12.109,12.109,0,0,1,4.682-4.88,12.426,12.426,0,0,1,2.788-1.185,1.394,1.394,0,0,0,1-1.342v-6.451a1.4,1.4,0,0,1,1.4-1.4H188.7a1.4,1.4,0,0,1,1.4,1.4V213.8a1.4,1.4,0,0,0,1.108,1.369,11.877,11.877,0,0,1,4.763,2.091,11.039,11.039,0,0,1,3.668,4.8,1.405,1.405,0,0,1-1.3,1.94h-1.944a1.4,1.4,0,0,1-1.3-.877,6.863,6.863,0,0,0-2.4-3.037,7.374,7.374,0,0,0-2.6-1.169,10.031,10.031,0,0,0-2.378-.268,9.028,9.028,0,0,0-3.072.5,7.661,7.661,0,0,0-3.171,2.15q-2.378,2.649-2.378,7.506,0,4.9,2.378,7.58a7.667,7.667,0,0,0,3.171,2.173,9.028,9.028,0,0,0,3.072.5,10.43,10.43,0,0,0,2.378-.258,7.416,7.416,0,0,0,2.576-1.13,6.807,6.807,0,0,0,2.423-3.09A1.4,1.4,0,0,1,196.4,233.706Z" transform="translate(-174.5 -206.184)" fill="#3b8e7e"/>
</svg>
