<svg xmlns="http://www.w3.org/2000/svg" width="71.036" height="53.427" viewBox="0 0 71.036 53.427">
  <g id="Mail_icon-icons.com_71849" transform="translate(-89.8 -131)">
    <path id="Path_42" data-name="Path 42" d="M127.279,155.277,103.6,131.727a5.713,5.713,0,0,1,2.821-.727h59.5a5.713,5.713,0,0,1,2.821.727l-23.679,23.551-2.821,2.8-4.787,4.766a1.856,1.856,0,0,1-1.282.534,1.792,1.792,0,0,1-1.282-.534Z" transform="translate(-10.851)" fill="#463c3c"/>
    <path id="Path_43" data-name="Path 43" d="M113.628,171.915l-23.251,23.1a5.733,5.733,0,0,1-.577-2.5V150.587a5.562,5.562,0,0,1,.363-1.987Z" transform="translate(0 -13.839)" fill="#463c3c"/>
    <path id="Path_44" data-name="Path 44" d="M146.868,270.8l23.187,23.059a5.616,5.616,0,0,1-2.329.492h-59.5a5.616,5.616,0,0,1-2.329-.492L129.087,270.8l4.808,4.766a5.834,5.834,0,0,0,4.082,1.688,5.743,5.743,0,0,0,4.082-1.688Z" transform="translate(-12.659 -109.924)" fill="#463c3c"/>
    <path id="Path_45" data-name="Path 45" d="M334.607,150.509v41.929a5.733,5.733,0,0,1-.577,2.5l-23.23-23.1L334.265,148.5A6.291,6.291,0,0,1,334.607,150.509Z" transform="translate(-173.771 -13.76)" fill="#463c3c"/>
  </g>
</svg>
