<svg xmlns="http://www.w3.org/2000/svg" width="28.245" height="29.249" viewBox="0 0 28.245 29.249">
  <g id="profile" transform="translate(-0.529 -0.529)">
    <path id="path1826" d="M14.658.529a7.217,7.217,0,0,0-7.07,7.31,7.227,7.227,0,0,0,7.07,7.322,7.216,7.216,0,0,0,7.056-7.322A7.206,7.206,0,0,0,14.658.529ZM9.006,16.618c-4.24,0-8.477,2.925-8.477,7.307v3.251a2.706,2.706,0,0,0,2.827,2.6H25.949c1.415,0,2.349-1.22,2.825-2.6V23.925c0-5.845-4.234-7.307-8.477-7.307Z" transform="translate(0 0)" fill="#5e4f49"/>
  </g>
</svg>
