<svg id="service-provider-icon" xmlns="http://www.w3.org/2000/svg" width="61.441" height="51.413" viewBox="0 0 61.441 51.413">
  <path id="Path_46" data-name="Path 46" d="M14.915,45.009V26.547h8.3c3.52.632,7.041,2.539,10.561,4.757h6.449c2.92.176,4.448,3.135,1.612,5.079-2.263,1.658-5.245,1.564-8.3,1.29-2.108-.1-2.2,2.731,0,2.741.764.059,1.595-.119,2.32-.12,3.818,0,6.962-.734,8.886-3.749l.968-2.257,9.594-4.757c4.8-1.581,8.212,3.442,4.676,6.933A125.661,125.661,0,0,1,38.617,49.039c-5.294,3.22-10.587,3.111-15.881,0l-7.82-4.03ZM51.03,15.425a.577.577,0,0,0-.444-.1.6.6,0,0,0-.382.248l-.527.743a3.554,3.554,0,0,0-.589-.2c-.206-.052-.4-.093-.609-.124l-.166-.97a.594.594,0,0,0-.237-.382.56.56,0,0,0-.443-.093l-1.219.217a.611.611,0,0,0-.382.238.569.569,0,0,0-.1.444l.155.888a3.544,3.544,0,0,0-.557.289,4.374,4.374,0,0,0-.506.351l-.826-.568a.551.551,0,0,0-.433-.1.6.6,0,0,0-.382.248l-.7,1a.582.582,0,0,0,.145.826l.743.527a3.677,3.677,0,0,0-.2.589c-.052.207-.093.4-.124.609l-.97.166a.6.6,0,0,0-.383.237.565.565,0,0,0-.093.444l.217,1.219a.609.609,0,0,0,.238.382.565.565,0,0,0,.444.1l.888-.155a3.651,3.651,0,0,0,.289.558,5.69,5.69,0,0,0,.352.516l-.569.815a.549.549,0,0,0-.1.434.6.6,0,0,0,.247.382l1.012.712a.574.574,0,0,0,.444.093.629.629,0,0,0,.393-.237l.527-.753a3.554,3.554,0,0,0,.589.2c.206.052.4.093.609.124l.166.97a.6.6,0,0,0,.237.382.56.56,0,0,0,.443.094l1.219-.217a.609.609,0,0,0,.382-.237.569.569,0,0,0,.1-.444L49.77,25a3.542,3.542,0,0,0,.557-.289,5.87,5.87,0,0,0,.516-.351l.815.568a.563.563,0,0,0,.444.1.575.575,0,0,0,.383-.247l.712-1.012a.569.569,0,0,0,.093-.444.626.626,0,0,0-.237-.392l-.754-.517a3.581,3.581,0,0,0,.2-.589c.052-.206.093-.4.124-.609l.971-.166a.6.6,0,0,0,.382-.237.561.561,0,0,0,.093-.444l-.217-1.219a.61.61,0,0,0-.237-.382.566.566,0,0,0-.444-.1l-.888.155a4.74,4.74,0,0,0-.289-.558,3.718,3.718,0,0,0-.35-.506l.568-.826a.55.55,0,0,0,.1-.434.6.6,0,0,0-.248-.382l-1-.7-.031.01Zm-3.541,2.87a2.378,2.378,0,0,1,2.446,1.063,2.277,2.277,0,0,1,.341.888,2.379,2.379,0,0,1-1.064,2.446,2.278,2.278,0,0,1-.888.341,2.381,2.381,0,0,1-2.447-1.063,2.288,2.288,0,0,1-.341-.888A2.379,2.379,0,0,1,46.6,18.636a2.261,2.261,0,0,1,.889-.341ZM38.114,3.82a.432.432,0,0,0-.145-.1.4.4,0,0,0-.31,0,.565.565,0,0,0-.135.093l-.01.01L36.348,4.986a.659.659,0,0,1-.847.073c-.134-.082-.269-.166-.423-.248s-.32-.166-.465-.238-.32-.144-.486-.207c-.145-.051-.31-.114-.506-.175a.663.663,0,0,1-.454-.63V1.776a.389.389,0,0,0-.032-.166.363.363,0,0,0-.093-.124.478.478,0,0,0-.124-.093.387.387,0,0,0-.165-.031H30.5a.617.617,0,0,0-.155.021.541.541,0,0,0-.145.1.291.291,0,0,0-.083.124.4.4,0,0,0-.031.166V3.417a.675.675,0,0,1-.547.661c-.176.042-.34.082-.485.124-.166.052-.32.1-.486.165a4.759,4.759,0,0,0-.475.207c-.166.073-.31.155-.455.227a.654.654,0,0,1-.785-.114l-1.291-1.28c-.009-.011-.009-.011-.009-.021a.487.487,0,0,0-.124-.093.308.308,0,0,0-.145-.02.348.348,0,0,0-.155.031.416.416,0,0,0-.145.1L23.422,4.987a.414.414,0,0,0-.1.144.341.341,0,0,0-.031.155.348.348,0,0,0,.031.155.518.518,0,0,0,.093.135v.01l1.166,1.166a.658.658,0,0,1,.073.846c-.083.135-.165.268-.247.424s-.166.32-.237.465-.145.32-.206.486c-.052.144-.114.309-.176.506a.663.663,0,0,1-.63.454H21.368a.393.393,0,0,0-.165.031.851.851,0,0,0-.124.083A.284.284,0,0,0,21,10.17a.4.4,0,0,0-.031.165v2.25a.617.617,0,0,0,.021.155.529.529,0,0,0,.1.144.285.285,0,0,0,.124.083.39.39,0,0,0,.166.031h1.642a.676.676,0,0,1,.661.547c.041.175.083.34.124.475.052.165.1.33.165.5s.124.32.206.486.155.33.228.475a.654.654,0,0,1-.124.774L23,17.522l-.01.01a.478.478,0,0,0-.093.124.309.309,0,0,0-.021.145.348.348,0,0,0,.031.155.34.34,0,0,0,.1.145l1.559,1.58a.431.431,0,0,0,.145.093.424.424,0,0,0,.166.031.485.485,0,0,0,.176-.031.956.956,0,0,0,.135-.083l1.156-1.177a.66.66,0,0,1,.847-.083c.135.083.268.166.423.248s.32.165.465.237.32.145.486.206c.145.052.31.114.506.176a.663.663,0,0,1,.455.63v1.786a.4.4,0,0,0,.031.166A.511.511,0,0,0,29.64,22a.389.389,0,0,0,.3.114H32.19a.613.613,0,0,0,.154-.021.545.545,0,0,0,.145-.1.3.3,0,0,0,.083-.124A.4.4,0,0,0,32.6,21.7V20.063a.676.676,0,0,1,.547-.661c.175-.042.341-.083.486-.124.165-.052.319-.1.486-.166s.319-.124.485-.206.331-.155.475-.227a.654.654,0,0,1,.775.124l1.27,1.281.011.01a.475.475,0,0,0,.123.093.479.479,0,0,0,.311-.01.521.521,0,0,0,.124-.093c.01-.01.021-.021.03-.021l1.569-1.549a.423.423,0,0,0,.093-.145.413.413,0,0,0,.032-.165.464.464,0,0,0-.032-.176.924.924,0,0,0-.082-.135l-1.177-1.156a.658.658,0,0,1-.083-.847c.083-.134.165-.269.248-.424s.165-.32.237-.465.145-.32.206-.486c.052-.144.114-.309.176-.506a.662.662,0,0,1,.63-.454h1.786a.384.384,0,0,0,.165-.031.52.52,0,0,0,.124-.083.388.388,0,0,0,.113-.3v-2.25a.619.619,0,0,0-.021-.155.548.548,0,0,0-.1-.144.287.287,0,0,0-.123-.083.4.4,0,0,0-.165-.031H39.676a.676.676,0,0,1-.66-.557c-.041-.144-.083-.3-.124-.454s-.1-.321-.176-.5c0-.01-.01-.021-.01-.031-.062-.165-.124-.309-.187-.454s-.145-.31-.227-.455a.655.655,0,0,1,.113-.785l1.28-1.29c0-.01.011-.01.021-.01a.481.481,0,0,0,.093-.124.308.308,0,0,0,.021-.144.345.345,0,0,0-.03-.155.416.416,0,0,0-.1-.144l-1.58-1.569.007.008Zm.372-1.331a1.774,1.774,0,0,1,.568.382l1.58,1.569h.01A1.859,1.859,0,0,1,41.026,5a1.641,1.641,0,0,1,.135.671,1.8,1.8,0,0,1-.135.671,1.585,1.585,0,0,1-.391.547l-.93.939c.011.031.032.062.041.093.083.176.155.362.228.536,0,.01.011.021.011.031.072.175.134.372.2.578l.021.073h1.135a1.624,1.624,0,0,1,.671.134,1.7,1.7,0,0,1,.557.382l.01.01a1.658,1.658,0,0,1,.372.557,1.809,1.809,0,0,1,.134.661v2.25a1.682,1.682,0,0,1-.506,1.239,1.717,1.717,0,0,1-.568.382,1.807,1.807,0,0,1-.671.124H40.014c-.01.031-.03.073-.041.1-.072.186-.155.372-.237.557s-.176.382-.269.547l-.032.062.806.8.032.031a1.674,1.674,0,0,1,.361.568,1.782,1.782,0,0,1-.361,1.879l-.021.021-1.58,1.569a1.718,1.718,0,0,1-.557.392,1.636,1.636,0,0,1-.681.134,1.912,1.912,0,0,1-.681-.134,1.635,1.635,0,0,1-.556-.392l-.919-.929a.325.325,0,0,1-.1.042c-.176.073-.361.155-.557.227s-.382.135-.578.2a.245.245,0,0,1-.083.021v1.125a1.622,1.622,0,0,1-.134.671,1.688,1.688,0,0,1-.382.558l-.011.01a1.644,1.644,0,0,1-.557.372,1.786,1.786,0,0,1-.66.135H29.959a1.682,1.682,0,0,1-1.239-.506,1.727,1.727,0,0,1-.382-.568,1.8,1.8,0,0,1-.124-.671V20.37c-.031-.01-.073-.031-.1-.042-.186-.073-.372-.155-.558-.237s-.382-.176-.548-.268l-.062-.031-.8.806-.031.031a1.659,1.659,0,0,1-.568.361,1.794,1.794,0,0,1-1.311,0,1.776,1.776,0,0,1-.568-.361l-.021-.021-1.58-1.6a1.859,1.859,0,0,1-.382-.558,1.657,1.657,0,0,1-.134-.671,1.81,1.81,0,0,1,.134-.671,1.888,1.888,0,0,1,.392-.558l.929-.919a.305.305,0,0,1-.041-.1c-.073-.175-.155-.361-.228-.557s-.145-.382-.2-.578l-.021-.083H21.4a1.623,1.623,0,0,1-.671-.134,1.686,1.686,0,0,1-.558-.382l-.01-.01a1.649,1.649,0,0,1-.372-.557,1.8,1.8,0,0,1-.135-.66v-2.25a1.681,1.681,0,0,1,.506-1.239,1.727,1.727,0,0,1,.568-.382,1.8,1.8,0,0,1,.671-.124H22.72c.01-.031.031-.073.042-.1.073-.186.155-.372.237-.557s.176-.382.268-.548L23.3,7.3l-.8-.8a1.614,1.614,0,0,1-.382-.568,1.693,1.693,0,0,1-.135-.671,1.654,1.654,0,0,1,.135-.671,1.768,1.768,0,0,1,.382-.568l1.569-1.579v-.01a1.859,1.859,0,0,1,.558-.382A1.657,1.657,0,0,1,25.3,1.91a1.8,1.8,0,0,1,.671.135,1.582,1.582,0,0,1,.548.392l.939.929a.642.642,0,0,0,.083-.041c.176-.083.361-.155.558-.237s.382-.134.578-.2a.239.239,0,0,1,.083-.021V1.745a1.623,1.623,0,0,1,.135-.671,1.693,1.693,0,0,1,.382-.557l.01-.011a1.654,1.654,0,0,1,.558-.371A1.8,1.8,0,0,1,30.5,0h2.251a1.845,1.845,0,0,1,.671.124,1.622,1.622,0,0,1,.569.382,1.729,1.729,0,0,1,.382.568,1.815,1.815,0,0,1,.124.671V3.066c.03.01.072.031.1.042.187.072.372.155.557.237s.382.175.548.269l.062.031.806-.795a1.612,1.612,0,0,1,.568-.382,1.7,1.7,0,0,1,.671-.135,1.659,1.659,0,0,1,.672.135v.021ZM31.351,6.669a4.751,4.751,0,0,1,1.011.1,4.862,4.862,0,0,1,.96.3,6.219,6.219,0,0,1,.857.464,4.642,4.642,0,0,1,.743.609,4.34,4.34,0,0,1,.61.754A4.612,4.612,0,0,1,36,9.756c.01.021.01.042.021.052a5.059,5.059,0,0,1,.278.908,5.465,5.465,0,0,1,.1,1.012,4.762,4.762,0,0,1-.1,1.012,4.88,4.88,0,0,1-.3.96,6.245,6.245,0,0,1-.465.857,6.013,6.013,0,0,1-.61.753,4.262,4.262,0,0,1-.754.609,4.565,4.565,0,0,1-.856.465c-.021.01-.041.01-.052.021a5.123,5.123,0,0,1-.908.279,5.522,5.522,0,0,1-1.011.1,4.727,4.727,0,0,1-1.012-.1,4.921,4.921,0,0,1-.961-.3,6.3,6.3,0,0,1-.857-.465,4.64,4.64,0,0,1-.743-.609,4.359,4.359,0,0,1-.61-.753,4.614,4.614,0,0,1-.465-.857c-.01-.021-.01-.042-.021-.052a5.047,5.047,0,0,1-.278-.908,5.509,5.509,0,0,1-.1-1.012,4.719,4.719,0,0,1,.1-1.012,4.883,4.883,0,0,1,.3-.96,6.154,6.154,0,0,1,.465-.856,5.308,5.308,0,0,1,.61-.754,4.686,4.686,0,0,1,.743-.609,4.556,4.556,0,0,1,.857-.464c.021-.01.042-.01.052-.021a5.088,5.088,0,0,1,.909-.279,5.509,5.509,0,0,1,1.012-.1Zm.754,1.4A3.6,3.6,0,0,0,31.351,8a3.667,3.667,0,0,0-.753.073,4.061,4.061,0,0,0-.66.2c-.01.01-.021.01-.042.021a3.919,3.919,0,0,0-.65.351,3.8,3.8,0,0,0-.547.444,3.21,3.21,0,0,0-.444.547,3.847,3.847,0,0,0-.351.651,3.66,3.66,0,0,0-.217.7,3.6,3.6,0,0,0-.073.753,3.667,3.667,0,0,0,.073.753,4.215,4.215,0,0,0,.2.66c.01.01.01.021.021.042a3.9,3.9,0,0,0,.351.651,3.742,3.742,0,0,0,.444.547,3.206,3.206,0,0,0,.547.444,3.847,3.847,0,0,0,.65.351,3.743,3.743,0,0,0,.7.217,3.571,3.571,0,0,0,.753.073,3.641,3.641,0,0,0,.754-.073,4.184,4.184,0,0,0,.661-.2c.01-.01.021-.01.041-.021a3.939,3.939,0,0,0,.651-.351A3.742,3.742,0,0,0,34,14.392a3.253,3.253,0,0,0,.444-.547,3.865,3.865,0,0,0,.35-.651,3.743,3.743,0,0,0,.217-.7,3.565,3.565,0,0,0,.072-.753,3.63,3.63,0,0,0-.072-.753,4.117,4.117,0,0,0-.2-.661c-.01-.01-.01-.021-.021-.042A3.852,3.852,0,0,0,34,9.085a3.211,3.211,0,0,0-.547-.444,3.866,3.866,0,0,0-.651-.351,3.757,3.757,0,0,0-.7-.216ZM0,24.773H12.415V46.863H0V24.773Z" fill="#f4ecdd" fill-rule="evenodd"/>
</svg>
