<svg xmlns="http://www.w3.org/2000/svg" xmlns:xlink="http://www.w3.org/1999/xlink" width="20" height="20" viewBox="0 0 20 20">
  <defs>
    <clipPath id="clip-path">
      <rect id="Rectangle_21" data-name="Rectangle 21" width="20" height="20" fill="#5e4f49"/>
    </clipPath>
  </defs>
  <g id="compose_edit_icon_251474" clip-path="url(#clip-path)">
    <path id="Path_6" data-name="Path 6" d="M17.555,3.554l-3.1-3.1a1.309,1.309,0,0,0-1.857,0l-6.814,6.9-.944,4.33A1.31,1.31,0,0,0,6.4,13.242l4.336-.944,6.826-6.9a1.307,1.307,0,0,0,0-1.846Z" transform="translate(2.062 0.029)" fill="#5e4f49"/>
    <path id="Path_7" data-name="Path 7" d="M17.129,12.187h-.583a1.45,1.45,0,0,0-1.429,1.444v2.413H3.456V4.385h2.41A1.444,1.444,0,0,0,7.309,2.942V2.36A1.447,1.447,0,0,0,5.866.931H1.437A1.429,1.429,0,0,0,.043,2.138,1.527,1.527,0,0,0,0,2.361v15.7a1.428,1.428,0,0,0,.38.956c.017.019.024.044.043.063a.538.538,0,0,0,.056.037,1.428,1.428,0,0,0,.963.386H17.129a1.429,1.429,0,0,0,.956-.38c.019-.017.046-.024.063-.043s.026-.044.043-.063a1.429,1.429,0,0,0,.381-.954V13.63a1.444,1.444,0,0,0-1.443-1.443Z" transform="translate(0 0.399)" fill="#5e4f49"/>
  </g>
</svg>
