<svg xmlns="http://www.w3.org/2000/svg" width="31.333" height="25.415" viewBox="0 0 31.333 25.415">
  <path id="Path_39" data-name="Path 39" d="M47.922,27.415c11.837,0,18.278-9.748,18.278-18.278v-.87a14.15,14.15,0,0,0,3.133-3.307A14.451,14.451,0,0,1,65.678,6a6.773,6.773,0,0,0,2.785-3.481,15.967,15.967,0,0,1-4,1.567A6.217,6.217,0,0,0,59.759,2a6.54,6.54,0,0,0-6.441,6.441,3.394,3.394,0,0,0,.174,1.393,18,18,0,0,1-13.23-6.789,6.666,6.666,0,0,0-.87,3.307,6.916,6.916,0,0,0,2.785,5.4,5.868,5.868,0,0,1-2.959-.87h0a6.362,6.362,0,0,0,5.222,6.267,5.366,5.366,0,0,1-1.741.174,2.962,2.962,0,0,1-1.219-.174,6.6,6.6,0,0,0,6.093,4.526,13.143,13.143,0,0,1-8.007,2.785A4.819,4.819,0,0,1,38,24.281a16.431,16.431,0,0,0,9.922,3.133" transform="translate(-38 -2)" fill="#f4ecdd" fill-rule="evenodd"/>
</svg>
