<svg xmlns="http://www.w3.org/2000/svg" width="42.212" height="37.311" viewBox="0 0 42.212 37.311">
  <g id="whats-new" transform="translate(-6.82 -17.139)">
    <path id="Path_24" data-name="Path 24" d="M74.905,53.433,72.989,46.9l-1.864-6.356,0,0-2.523-8.6-.4-1.364v0l-.615-2.1a.789.789,0,0,0-.4-.479,1.9,1.9,0,0,0-.224-.277c-1.265-1.265-3.9-.431-6.81,1.457a7.763,7.763,0,0,1,.274-10.69.793.793,0,1,0-1.121-1.121,9.359,9.359,0,0,0-.464,12.718A38.96,38.96,0,0,0,54.41,33.92l0,0a17.363,17.363,0,0,0-9.464-2.511A.793.793,0,0,0,44.98,33a15.793,15.793,0,0,1,8.3,2.1,36.93,36.93,0,0,0-2.807,3.4,9.36,9.36,0,0,0-9.927,2.127.793.793,0,0,0,1.121,1.121,7.772,7.772,0,0,1,7.886-1.9q-.409.643-.744,1.26c-1.733,3.2-1.279,4.687-.593,5.372a1.943,1.943,0,0,0,.28.229.789.789,0,0,0,.476.39l2.094.615h0l4.343,1.275h0l9.182,2.694.619.182h0l8.709,2.556a.793.793,0,0,0,.984-.984Zm-3.413-6a3.032,3.032,0,0,1-1.627-5.545l1.526,5.2Zm-3.63-12.372a31.488,31.488,0,0,1-5.387,6.928,31.46,31.46,0,0,1-6.926,5.387L52.4,46.45a29.879,29.879,0,0,0,8.367-6.17,29.872,29.872,0,0,0,6.17-8.368l.31,1.055ZM50.2,41.858c.239-.441.514-.9.817-1.364a7.793,7.793,0,0,1,1.626,1.246.793.793,0,0,0,1.121-1.121,9.33,9.33,0,0,0-1.839-1.429,36.023,36.023,0,0,1,2.7-3.219,16.219,16.219,0,0,1,1.99,1.691.793.793,0,0,0,1.121-1.121,17.873,17.873,0,0,0-1.99-1.717c4.453-4.391,8.132-6.135,9.557-6.135a.748.748,0,0,1,.535.157c.7.7-.854,4.973-6.2,10.314s-9.614,6.9-10.314,6.2C49.1,45.124,48.988,44.1,50.2,41.858ZM61.67,48.923l1.082.043a.8.8,0,0,0,.666-.318l.649-.868.294,1.042a.793.793,0,0,0,.508.535l1.028.349-.732.49-3.276-.962Zm5.476,1.853.966-.646a.793.793,0,0,0-.186-1.41l-2.153-.732L65.155,45.8a.793.793,0,0,0-1.4-.259L62.4,47.365l-2.27-.089a.792.792,0,0,0-.684,1.241l-1.808-.53A36.242,36.242,0,0,0,63.6,43.107a36.325,36.325,0,0,0,4.878-5.963l.931,3.173a4.616,4.616,0,0,0,2.154,8.7c.131,0,.262-.008.393-.019l1.024,3.489Z" transform="translate(-25.906 0)" fill="#5e4f49"/>
    <path id="Path_25" data-name="Path 25" d="M12.363,86.486a17.348,17.348,0,0,0-5.311,3.642.793.793,0,1,0,1.122,1.12A15.768,15.768,0,0,1,13,87.938a.793.793,0,0,0-.638-1.451Z" transform="translate(0 -53.588)" fill="#5e4f49"/>
    <path id="Path_26" data-name="Path 26" d="M56.747,31.835l2.038,1.006.327,2.25a.793.793,0,0,0,1.352.439L62.051,33.9l2.241.384a.793.793,0,0,0,.836-1.15L64.07,31.124l1.058-2.012a.793.793,0,0,0-.836-1.15l-2.241.384-1.587-1.628a.793.793,0,0,0-1.352.439l-.327,2.25-2.038,1.006a.793.793,0,0,0,0,1.422Zm3.114-1.19a.793.793,0,0,0,.434-.6l.156-1.072.756.776a.793.793,0,0,0,.7.228l1.068-.183-.5.959a.793.793,0,0,0,0,.738l.5.959-1.068-.183a.793.793,0,0,0-.7.228l-.756.776L60.294,32.2a.792.792,0,0,0-.434-.6l-.972-.48Z" transform="translate(-38.277 -7.224)" fill="#5e4f49"/>
    <path id="Path_27" data-name="Path 27" d="M45.242,135.575a2.307,2.307,0,1,0,2.307,2.307A2.31,2.31,0,0,0,45.242,135.575Zm0,3.028a.721.721,0,1,1,.721-.721A.722.722,0,0,1,45.242,138.6Z" transform="translate(-27.935 -91.61)" fill="#5e4f49"/>
    <path id="Path_28" data-name="Path 28" d="M21.313,47.16a2.978,2.978,0,1,0-2.978-2.978A2.981,2.981,0,0,0,21.313,47.16Zm0-4.37a1.392,1.392,0,1,1-1.392,1.392A1.394,1.394,0,0,1,21.313,42.79Z" transform="translate(-8.907 -18.615)" fill="#5e4f49"/>
  </g>
</svg>
