<svg xmlns="http://www.w3.org/2000/svg" width="32.439" height="30.88" viewBox="0 0 32.439 30.88">
  <path id="_3668832-atm-cashout-money-withdraw_108038" data-name="3668832-atm-cashout-money-withdraw_108038" d="M19.355,13.826a4.756,4.756,0,0,1,4.731,4.211c.27,2.386-1.757,4.211-4.6,4.211s-4.866-1.825-4.731-4.211A4.531,4.531,0,0,1,19.355,13.826Zm6.217-2.807L28.14,26.6a4.459,4.459,0,0,0-1.487-.14C24.626,26.6,23,28,22.869,29.546A2.834,2.834,0,0,0,23,30.669H16.516a2.834,2.834,0,0,0,.135-1.123,4.183,4.183,0,0,0-3.92-3.088H11.245l1.892-15.44H9.758L6.244,30.669c-.405,2.386,0,4.211,3.379,4.211H30.167c3.379,0,3.649-1.825,3.109-4.211l-4.6-19.651ZM34.087,4H4.352A1.3,1.3,0,0,0,3,5.4v7.018a1.3,1.3,0,0,0,1.352,1.4H6.379L7.6,8.211H30.708l1.622,5.615h1.757a1.3,1.3,0,0,0,1.352-1.4V5.4A1.3,1.3,0,0,0,34.087,4Z" transform="translate(-3 -4)" fill="#f4ecdd"/>
</svg>
